G04 EAGLE Gerber RS-274X export*
G75*
%MOMM*%
%FSLAX34Y34*%
%LPD*%
%INTop Copper*%
%IPPOS*%
%AMOC8*
5,1,8,0,0,1.08239X$1,22.5*%
G01*
%ADD10P,1.429621X8X22.500000*%
%ADD11C,1.320800*%
%ADD12P,1.429621X8X292.500000*%
%ADD13P,1.429621X8X112.500000*%
%ADD14C,1.320800*%
%ADD15C,1.524000*%
%ADD16C,2.000000*%
%ADD17C,1.400000*%
%ADD18C,0.152400*%


D10*
X289560Y495300D03*
D11*
X269240Y495300D03*
D12*
X292100Y558800D03*
X292100Y533400D03*
D13*
X177800Y622300D03*
X177800Y647700D03*
D10*
X114300Y647700D03*
X139700Y647700D03*
D14*
X165100Y451104D02*
X165100Y437896D01*
X190500Y437896D02*
X190500Y451104D01*
X190500Y514096D02*
X190500Y527304D01*
X165100Y527304D02*
X165100Y514096D01*
X215900Y451104D02*
X215900Y437896D01*
X241300Y437896D02*
X241300Y451104D01*
X215900Y514096D02*
X215900Y527304D01*
X241300Y527304D02*
X241300Y514096D01*
D15*
X190500Y728980D02*
X190500Y744220D01*
X215900Y744220D02*
X215900Y728980D01*
X241300Y728980D02*
X241300Y744220D01*
D16*
X145300Y746600D02*
X145300Y726600D01*
X84300Y726600D02*
X84300Y746600D01*
X104300Y688600D02*
X124300Y688600D01*
D17*
X230200Y342900D03*
X176200Y342900D03*
D13*
X330200Y431800D03*
X330200Y457200D03*
D12*
X139700Y393700D03*
X139700Y266700D03*
X266700Y419100D03*
X266700Y292100D03*
D13*
X228600Y558800D03*
X228600Y685800D03*
D18*
X215900Y444500D02*
X216408Y443484D01*
M02*
